# xmcd CD database file generated by OrangeCD 6.5
#
# Track frame offsets:
#	150
#	17625
#	36150
#	54899
#	72750
#	86775
#	106050
#	122850
#	140625
#	160126
#	176101
#	198151
#	223201
#
# Disc length: 3285 seconds
#
# Revision: 1
# Processed by: cddbd v1.5.2PL0 Copyright (c) Steve Scherf et al.
# Submitted via: OrangeCD 6.5
#
DISCID=b60cd30d
DTITLE=Hepalong Gang - Honky Tonk Memories
DYEAR=2012
DGENRE=
TTITLE0=Those Memories
TTITLE1=Somebody Else
TTITLE2=Lost Highway
TTITLE3=Dallas
TTITLE4=Live Forever
TTITLE5=Whatever Happened To The Blues
TTITLE6=Carmelita
TTITLE7=Mistery Train
TTITLE8=It's All Over Now Baby Blue
TTITLE9=If I Needed You
TTITLE10=Forever Young
TTITLE11=Ghostriders (In The Sky)
TTITLE12=I Did It My Way
EXTD=
EXTT0=
EXTT1=
EXTT2=
EXTT3=
EXTT4=
EXTT5=
EXTT6=
EXTT7=
EXTT8=
EXTT9=
EXTT10=
EXTT11=
EXTT12=
PLAYORDER=
